<svg xmlns="http://www.w3.org/2000/svg" xmlns:xlink="http://www.w3.org/1999/xlink" width="175" height="175" viewBox="0 0 180 180">
  <defs>
    <clipPath id="clip-path">
      <rect id="Rectángulo_42" data-name="Rectángulo 42" width="175" height="175" fill="none"/>
    </clipPath>
  </defs>
  <g id="Artwork_7" data-name="Artwork 7" transform="translate(89.5 87.5)">
    <g id="Artwork_7-2" data-name="Artwork 7" transform="translate(-87.5 -87.5)" clip-path="url(#clip-path)">
      <path id="Trazado_131" data-name="Trazado 131" d="M174.767,87.174A87.384,87.384,0,1,1,87.384,0a87.253,87.253,0,0,1,87.384,87.174" transform="translate(-0.187 -0.012)" fill="#fff"/>
      <path id="Trazado_132" data-name="Trazado 132" d="M174.253,157.8a7.735,7.735,0,1,1-7.753,7.735,7.744,7.744,0,0,1,7.753-7.735" transform="translate(-96.905 -91.836)" fill="#23305e"/>
      <path id="Trazado_133" data-name="Trazado 133" d="M189.594,159.7a23.955,23.955,0,0,0-13.369-6.355V113.918a15.492,15.492,0,0,0-4.443-10.787A15.106,15.106,0,0,0,160.969,98.7H98.355a15.568,15.568,0,0,0-10.813,4.432A15.033,15.033,0,0,0,83.1,113.918v64.3a15.492,15.492,0,0,0,4.443,10.787,15.107,15.107,0,0,0,10.813,4.432h60.561a22.811,22.811,0,0,0,30.637-33.7M88.883,113.918a9.586,9.586,0,0,1,9.514-9.491h62.573a9.586,9.586,0,0,1,9.514,9.491v33.615l-15.968-15.846a2.9,2.9,0,0,0-4.107,0l-24.057,24.124-16.3-16.348a2.9,2.9,0,0,0-4.107,0L88.883,156.69ZM98.271,187.8v-.125a9.483,9.483,0,0,1-6.706-2.8,9.813,9.813,0,0,1-2.682-6.69V164.759l19.2-19.149,16.3,16.264a3.023,3.023,0,0,0,4.107,0l24.057-24.166L168.3,153.554l-.964.334a10.157,10.157,0,0,0-1.383.418l-1.3.418a3.231,3.231,0,0,0-.88.418,9.94,9.94,0,0,0-1.09.544l-1.635.962-.88.544-.545.334a13.024,13.024,0,0,0-2.6,2.258,22.759,22.759,0,0,0-6.706,16.139,23.608,23.608,0,0,0,.545,4.725l.335,1.171a29.087,29.087,0,0,0,1.09,3.219v.125a19.809,19.809,0,0,0,1.383,2.592Zm87.09.125a17.087,17.087,0,0,1-23.847.209l-1.3-1.38-.964-1.087a10.194,10.194,0,0,1-1.09-1.84l-.629-1.171a9.056,9.056,0,0,1-.545-1.84c-.126-.418-.335-.962-.419-1.38a17.814,17.814,0,0,1-.335-3.428,17.246,17.246,0,0,1,4.945-12.041,16.911,16.911,0,0,1,12.07-4.934,17.331,17.331,0,0,1,12.07,4.934,16.62,16.62,0,0,1,5.029,12,17.2,17.2,0,0,1-4.945,11.958" transform="translate(-48.458 -57.445)" fill="#23305e"/>
      <path id="Trazado_134" data-name="Trazado 134" d="M289.834,263.519h-6.58v-6.606a2.935,2.935,0,0,0-5.826,0v6.564h-6.58a2.927,2.927,0,1,0,0,5.812h6.58v6.564a2.935,2.935,0,0,0,5.826,0V269.33h6.58a2.927,2.927,0,1,0,0-5.812" transform="translate(-155.613 -148.01)" fill="#23305e"/>
      <path id="Trazado_135" data-name="Trazado 135" d="M91.935,211.849l21.374-20.9,18.441,17.978L157.735,183l20.117,21.323s-12.573,2.927-15.088,7.944-8.382,14.215-5.448,17.142,2.1,4.6,4.191,7.108-28.5,3.345-28.5,3.345l-33.529-1.672s-4.61-1.672-6.287-4.6-1.257-21.741-1.257-21.741" transform="translate(-53.564 -106.5)" fill="#23305e"/>
    </g>
  </g>
</svg>
